<svg style="display: none;">
  <symbol fill="none" viewBox="0 0 30 30" id="icon-search" xmlns="http://www.w3.org/2000/svg">
    <path fill-rule="evenodd" clip-rule="evenodd" d="M19.476 21.596a12.067 12.067 0 0 1-14.81.005C-.6 17.511-1.551 9.93 2.537 4.666c4.089-5.264 11.67-6.217 16.933-2.127 5.263 4.089 6.215 11.671 2.127 16.935l7.98 7.982a1.501 1.501 0 0 1-2.121 2.123l-7.981-7.983Zm-.99-15.938a9.068 9.068 0 0 0-12.825 0l-.046.046a9.038 9.038 0 0 0 .046 12.781 9.068 9.068 0 0 0 12.826 0 9.071 9.071 0 0 0 0-12.827Z" fill="#000" opacity=".356"/>
  </symbol>
</svg>